<mxfile host="app.diagrams.net" modified="2022-09-15T12:25:42.912Z" agent="5.0 (Macintosh; Intel Mac OS X 10_15_7) AppleWebKit/537.36 (KHTML, like Gecko) Chrome/105.0.0.0 Safari/537.36" etag="VhA0IC0d3HgFJKynL7-w" version="20.3.0" type="github">
  <diagram id="sRO21ygwKzqqYOBUr5n5" name="第 1 页">
    <mxGraphModel dx="2893" dy="1153" grid="1" gridSize="10" guides="1" tooltips="1" connect="1" arrows="1" fold="1" page="1" pageScale="1" pageWidth="827" pageHeight="1169" math="0" shadow="0">
      <root>
        <mxCell id="0" />
        <mxCell id="1" parent="0" />
        <mxCell id="dreWkVH8_gjgvt2EBjUj-6" style="edgeStyle=orthogonalEdgeStyle;rounded=0;orthogonalLoop=1;jettySize=auto;html=1;exitX=1;exitY=0.5;exitDx=0;exitDy=0;entryX=0;entryY=0.25;entryDx=0;entryDy=0;" edge="1" parent="1" source="dreWkVH8_gjgvt2EBjUj-2" target="dreWkVH8_gjgvt2EBjUj-3">
          <mxGeometry relative="1" as="geometry" />
        </mxCell>
        <mxCell id="dreWkVH8_gjgvt2EBjUj-2" value="端口" style="rounded=0;whiteSpace=wrap;html=1;" vertex="1" parent="1">
          <mxGeometry x="20" y="340" width="120" height="60" as="geometry" />
        </mxCell>
        <mxCell id="dreWkVH8_gjgvt2EBjUj-7" style="edgeStyle=orthogonalEdgeStyle;rounded=0;orthogonalLoop=1;jettySize=auto;html=1;exitX=1;exitY=0.25;exitDx=0;exitDy=0;entryX=0;entryY=0.25;entryDx=0;entryDy=0;" edge="1" parent="1" source="dreWkVH8_gjgvt2EBjUj-3" target="dreWkVH8_gjgvt2EBjUj-4">
          <mxGeometry relative="1" as="geometry" />
        </mxCell>
        <mxCell id="dreWkVH8_gjgvt2EBjUj-11" style="edgeStyle=orthogonalEdgeStyle;rounded=0;orthogonalLoop=1;jettySize=auto;html=1;exitX=0;exitY=0.75;exitDx=0;exitDy=0;" edge="1" parent="1" source="dreWkVH8_gjgvt2EBjUj-3">
          <mxGeometry relative="1" as="geometry">
            <mxPoint x="-60" y="470" as="targetPoint" />
          </mxGeometry>
        </mxCell>
        <mxCell id="dreWkVH8_gjgvt2EBjUj-14" value="上游连接" style="edgeLabel;html=1;align=center;verticalAlign=middle;resizable=0;points=[];" vertex="1" connectable="0" parent="dreWkVH8_gjgvt2EBjUj-11">
          <mxGeometry x="0.0889" relative="1" as="geometry">
            <mxPoint as="offset" />
          </mxGeometry>
        </mxCell>
        <mxCell id="dreWkVH8_gjgvt2EBjUj-3" value="L4过滤器" style="rounded=0;whiteSpace=wrap;html=1;" vertex="1" parent="1">
          <mxGeometry x="210" y="320" width="120" height="200" as="geometry" />
        </mxCell>
        <mxCell id="dreWkVH8_gjgvt2EBjUj-8" style="edgeStyle=orthogonalEdgeStyle;rounded=0;orthogonalLoop=1;jettySize=auto;html=1;exitX=1;exitY=0.25;exitDx=0;exitDy=0;entryX=0;entryY=0.25;entryDx=0;entryDy=0;" edge="1" parent="1" source="dreWkVH8_gjgvt2EBjUj-4" target="dreWkVH8_gjgvt2EBjUj-5">
          <mxGeometry relative="1" as="geometry" />
        </mxCell>
        <mxCell id="dreWkVH8_gjgvt2EBjUj-10" style="edgeStyle=orthogonalEdgeStyle;rounded=0;orthogonalLoop=1;jettySize=auto;html=1;exitX=0;exitY=0.75;exitDx=0;exitDy=0;entryX=1;entryY=0.75;entryDx=0;entryDy=0;" edge="1" parent="1" source="dreWkVH8_gjgvt2EBjUj-4" target="dreWkVH8_gjgvt2EBjUj-3">
          <mxGeometry relative="1" as="geometry" />
        </mxCell>
        <mxCell id="dreWkVH8_gjgvt2EBjUj-4" value="L7&lt;span style=&quot;color: rgba(0, 0, 0, 0); font-family: monospace; font-size: 0px; text-align: start;&quot;&gt;%3CmxGraphModel%3E%3Croot%3E%3CmxCell%20id%3D%220%22%2F%3E%3CmxCell%20id%3D%221%22%20parent%3D%220%22%2F%3E%3CmxCell%20id%3D%222%22%20value%3D%22L4%E8%BF%87%E6%BB%A4%E5%99%A8%22%20style%3D%22rounded%3D0%3BwhiteSpace%3Dwrap%3Bhtml%3D1%3B%22%20vertex%3D%221%22%20parent%3D%221%22%3E%3CmxGeometry%20x%3D%22210%22%20y%3D%22320%22%20width%3D%22120%22%20height%3D%22200%22%20as%3D%22geometry%22%2F%3E%3C%2FmxCell%3E%3C%2Froot%3E%3C%2FmxGraphModel%3E&lt;/span&gt;&lt;br&gt;过滤器" style="rounded=0;whiteSpace=wrap;html=1;" vertex="1" parent="1">
          <mxGeometry x="430" y="320" width="120" height="200" as="geometry" />
        </mxCell>
        <mxCell id="dreWkVH8_gjgvt2EBjUj-9" style="edgeStyle=orthogonalEdgeStyle;rounded=0;orthogonalLoop=1;jettySize=auto;html=1;exitX=0;exitY=0.75;exitDx=0;exitDy=0;entryX=1;entryY=0.75;entryDx=0;entryDy=0;" edge="1" parent="1" source="dreWkVH8_gjgvt2EBjUj-5" target="dreWkVH8_gjgvt2EBjUj-4">
          <mxGeometry relative="1" as="geometry" />
        </mxCell>
        <mxCell id="dreWkVH8_gjgvt2EBjUj-5" value="上游连接池" style="rounded=0;whiteSpace=wrap;html=1;" vertex="1" parent="1">
          <mxGeometry x="640" y="320" width="120" height="200" as="geometry" />
        </mxCell>
        <mxCell id="dreWkVH8_gjgvt2EBjUj-12" value="" style="endArrow=classic;html=1;rounded=0;entryX=0;entryY=0.5;entryDx=0;entryDy=0;" edge="1" parent="1" target="dreWkVH8_gjgvt2EBjUj-2">
          <mxGeometry width="50" height="50" relative="1" as="geometry">
            <mxPoint x="-60" y="370" as="sourcePoint" />
            <mxPoint x="-210" y="330" as="targetPoint" />
          </mxGeometry>
        </mxCell>
        <mxCell id="dreWkVH8_gjgvt2EBjUj-13" value="下游连接" style="edgeLabel;html=1;align=center;verticalAlign=middle;resizable=0;points=[];" vertex="1" connectable="0" parent="dreWkVH8_gjgvt2EBjUj-12">
          <mxGeometry x="-0.25" y="-2" relative="1" as="geometry">
            <mxPoint y="-2" as="offset" />
          </mxGeometry>
        </mxCell>
        <mxCell id="dreWkVH8_gjgvt2EBjUj-25" style="edgeStyle=orthogonalEdgeStyle;rounded=0;orthogonalLoop=1;jettySize=auto;html=1;exitX=1;exitY=0.5;exitDx=0;exitDy=0;entryX=0;entryY=0.5;entryDx=0;entryDy=0;" edge="1" parent="1" source="dreWkVH8_gjgvt2EBjUj-20" target="dreWkVH8_gjgvt2EBjUj-21">
          <mxGeometry relative="1" as="geometry" />
        </mxCell>
        <mxCell id="dreWkVH8_gjgvt2EBjUj-20" value="Listener" style="rounded=0;whiteSpace=wrap;html=1;fillColor=#f5f5f5;fontColor=#333333;strokeColor=#666666;" vertex="1" parent="1">
          <mxGeometry x="50" y="750" width="140" height="80" as="geometry" />
        </mxCell>
        <mxCell id="dreWkVH8_gjgvt2EBjUj-26" style="edgeStyle=orthogonalEdgeStyle;rounded=0;orthogonalLoop=1;jettySize=auto;html=1;exitX=1;exitY=0.5;exitDx=0;exitDy=0;entryX=0;entryY=0.5;entryDx=0;entryDy=0;" edge="1" parent="1" source="dreWkVH8_gjgvt2EBjUj-21" target="dreWkVH8_gjgvt2EBjUj-22">
          <mxGeometry relative="1" as="geometry" />
        </mxCell>
        <mxCell id="dreWkVH8_gjgvt2EBjUj-21" value="router" style="rounded=0;whiteSpace=wrap;html=1;fillColor=#fff2cc;strokeColor=#d6b656;" vertex="1" parent="1">
          <mxGeometry x="240" y="750" width="150" height="80" as="geometry" />
        </mxCell>
        <mxCell id="dreWkVH8_gjgvt2EBjUj-22" value="Cluster" style="rounded=0;whiteSpace=wrap;html=1;fillColor=#ffe6cc;strokeColor=#d79b00;" vertex="1" parent="1">
          <mxGeometry x="430" y="750" width="140" height="80" as="geometry" />
        </mxCell>
        <mxCell id="dreWkVH8_gjgvt2EBjUj-27" style="edgeStyle=orthogonalEdgeStyle;rounded=0;orthogonalLoop=1;jettySize=auto;html=1;exitX=0.5;exitY=1;exitDx=0;exitDy=0;" edge="1" parent="1" source="dreWkVH8_gjgvt2EBjUj-23">
          <mxGeometry relative="1" as="geometry">
            <mxPoint x="660" y="790" as="targetPoint" />
            <Array as="points">
              <mxPoint x="500" y="850" />
              <mxPoint x="590" y="850" />
              <mxPoint x="590" y="790" />
            </Array>
          </mxGeometry>
        </mxCell>
        <mxCell id="dreWkVH8_gjgvt2EBjUj-28" value="上游连接" style="edgeLabel;html=1;align=center;verticalAlign=middle;resizable=0;points=[];" vertex="1" connectable="0" parent="dreWkVH8_gjgvt2EBjUj-27">
          <mxGeometry x="0.6833" y="-1" relative="1" as="geometry">
            <mxPoint as="offset" />
          </mxGeometry>
        </mxCell>
        <mxCell id="dreWkVH8_gjgvt2EBjUj-23" value="Endpoint" style="rounded=0;whiteSpace=wrap;html=1;fillColor=#dae8fc;strokeColor=#6c8ebf;" vertex="1" parent="1">
          <mxGeometry x="460" y="800" width="80" height="30" as="geometry" />
        </mxCell>
        <mxCell id="dreWkVH8_gjgvt2EBjUj-24" value="" style="endArrow=classic;html=1;rounded=0;entryX=0;entryY=0.5;entryDx=0;entryDy=0;" edge="1" parent="1" target="dreWkVH8_gjgvt2EBjUj-20">
          <mxGeometry width="50" height="50" relative="1" as="geometry">
            <mxPoint x="-40" y="790" as="sourcePoint" />
            <mxPoint x="-80" y="770" as="targetPoint" />
          </mxGeometry>
        </mxCell>
        <mxCell id="dreWkVH8_gjgvt2EBjUj-29" value="下游连接" style="edgeLabel;html=1;align=center;verticalAlign=middle;resizable=0;points=[];" vertex="1" connectable="0" parent="dreWkVH8_gjgvt2EBjUj-24">
          <mxGeometry x="-0.1778" y="-3" relative="1" as="geometry">
            <mxPoint as="offset" />
          </mxGeometry>
        </mxCell>
        <mxCell id="dreWkVH8_gjgvt2EBjUj-30" value="LDS" style="endArrow=none;dashed=1;html=1;dashPattern=1 3;strokeWidth=2;rounded=0;exitX=0.5;exitY=0;exitDx=0;exitDy=0;" edge="1" parent="1" source="dreWkVH8_gjgvt2EBjUj-20">
          <mxGeometry width="50" height="50" relative="1" as="geometry">
            <mxPoint x="90" y="670" as="sourcePoint" />
            <mxPoint x="120" y="640" as="targetPoint" />
          </mxGeometry>
        </mxCell>
        <mxCell id="dreWkVH8_gjgvt2EBjUj-31" value="RDS" style="endArrow=none;dashed=1;html=1;dashPattern=1 3;strokeWidth=2;rounded=0;exitX=0.5;exitY=0;exitDx=0;exitDy=0;" edge="1" parent="1">
          <mxGeometry width="50" height="50" relative="1" as="geometry">
            <mxPoint x="320" y="750" as="sourcePoint" />
            <mxPoint x="320" y="640" as="targetPoint" />
          </mxGeometry>
        </mxCell>
        <mxCell id="dreWkVH8_gjgvt2EBjUj-32" value="CDS/EDS" style="endArrow=none;dashed=1;html=1;dashPattern=1 3;strokeWidth=2;rounded=0;exitX=0.5;exitY=0;exitDx=0;exitDy=0;" edge="1" parent="1">
          <mxGeometry width="50" height="50" relative="1" as="geometry">
            <mxPoint x="499.5" y="750" as="sourcePoint" />
            <mxPoint x="499.5" y="640" as="targetPoint" />
          </mxGeometry>
        </mxCell>
        <mxCell id="dreWkVH8_gjgvt2EBjUj-33" style="edgeStyle=orthogonalEdgeStyle;rounded=0;orthogonalLoop=1;jettySize=auto;html=1;exitX=1;exitY=0.5;exitDx=0;exitDy=0;entryX=0;entryY=0.25;entryDx=0;entryDy=0;" edge="1" parent="1" source="dreWkVH8_gjgvt2EBjUj-34" target="dreWkVH8_gjgvt2EBjUj-38">
          <mxGeometry relative="1" as="geometry" />
        </mxCell>
        <mxCell id="dreWkVH8_gjgvt2EBjUj-34" value="端口" style="rounded=0;whiteSpace=wrap;html=1;fillColor=#f5f5f5;fontColor=#333333;strokeColor=#666666;" vertex="1" parent="1">
          <mxGeometry x="10" y="30" width="120" height="60" as="geometry" />
        </mxCell>
        <mxCell id="dreWkVH8_gjgvt2EBjUj-35" style="edgeStyle=orthogonalEdgeStyle;rounded=0;orthogonalLoop=1;jettySize=auto;html=1;exitX=1;exitY=0.25;exitDx=0;exitDy=0;entryX=0;entryY=0.25;entryDx=0;entryDy=0;" edge="1" parent="1" source="dreWkVH8_gjgvt2EBjUj-38" target="dreWkVH8_gjgvt2EBjUj-41">
          <mxGeometry relative="1" as="geometry" />
        </mxCell>
        <mxCell id="dreWkVH8_gjgvt2EBjUj-36" style="edgeStyle=orthogonalEdgeStyle;rounded=0;orthogonalLoop=1;jettySize=auto;html=1;exitX=0;exitY=0.75;exitDx=0;exitDy=0;" edge="1" parent="1" source="dreWkVH8_gjgvt2EBjUj-38">
          <mxGeometry relative="1" as="geometry">
            <mxPoint x="-70" y="160" as="targetPoint" />
          </mxGeometry>
        </mxCell>
        <mxCell id="dreWkVH8_gjgvt2EBjUj-37" value="上游连接" style="edgeLabel;html=1;align=center;verticalAlign=middle;resizable=0;points=[];" vertex="1" connectable="0" parent="dreWkVH8_gjgvt2EBjUj-36">
          <mxGeometry x="0.0889" relative="1" as="geometry">
            <mxPoint as="offset" />
          </mxGeometry>
        </mxCell>
        <mxCell id="dreWkVH8_gjgvt2EBjUj-38" value="L4过滤器&lt;br&gt;http_connection&lt;br&gt;_manager" style="rounded=0;whiteSpace=wrap;html=1;fillColor=#ffe6cc;strokeColor=#d79b00;" vertex="1" parent="1">
          <mxGeometry x="200" y="10" width="120" height="200" as="geometry" />
        </mxCell>
        <mxCell id="dreWkVH8_gjgvt2EBjUj-40" style="edgeStyle=orthogonalEdgeStyle;rounded=0;orthogonalLoop=1;jettySize=auto;html=1;exitX=0;exitY=0.75;exitDx=0;exitDy=0;entryX=1;entryY=0.75;entryDx=0;entryDy=0;" edge="1" parent="1" source="dreWkVH8_gjgvt2EBjUj-41" target="dreWkVH8_gjgvt2EBjUj-38">
          <mxGeometry relative="1" as="geometry" />
        </mxCell>
        <mxCell id="dreWkVH8_gjgvt2EBjUj-41" value="L7&lt;span style=&quot;color: rgba(0, 0, 0, 0); font-family: monospace; font-size: 0px; text-align: start;&quot;&gt;%3CmxGraphModel%3E%3Croot%3E%3CmxCell%20id%3D%220%22%2F%3E%3CmxCell%20id%3D%221%22%20parent%3D%220%22%2F%3E%3CmxCell%20id%3D%222%22%20value%3D%22L4%E8%BF%87%E6%BB%A4%E5%99%A8%22%20style%3D%22rounded%3D0%3BwhiteSpace%3Dwrap%3Bhtml%3D1%3B%22%20vertex%3D%221%22%20parent%3D%221%22%3E%3CmxGeometry%20x%3D%22210%22%20y%3D%22320%22%20width%3D%22120%22%20height%3D%22200%22%20as%3D%22geometry%22%2F%3E%3C%2FmxCell%3E%3C%2Froot%3E%3C%2FmxGraphModel%3E&lt;/span&gt;&lt;br&gt;过滤器" style="rounded=0;whiteSpace=wrap;html=1;fillColor=#dae8fc;strokeColor=#6c8ebf;" vertex="1" parent="1">
          <mxGeometry x="420" y="10" width="190" height="200" as="geometry" />
        </mxCell>
        <mxCell id="dreWkVH8_gjgvt2EBjUj-43" value="上游连接池" style="rounded=0;whiteSpace=wrap;html=1;fillColor=#e1d5e7;strokeColor=#9673a6;" vertex="1" parent="1">
          <mxGeometry x="530" y="150" width="70" height="40" as="geometry" />
        </mxCell>
        <mxCell id="dreWkVH8_gjgvt2EBjUj-44" value="" style="endArrow=classic;html=1;rounded=0;entryX=0;entryY=0.5;entryDx=0;entryDy=0;" edge="1" parent="1" target="dreWkVH8_gjgvt2EBjUj-34">
          <mxGeometry width="50" height="50" relative="1" as="geometry">
            <mxPoint x="-70" y="60" as="sourcePoint" />
            <mxPoint x="-220" y="20" as="targetPoint" />
          </mxGeometry>
        </mxCell>
        <mxCell id="dreWkVH8_gjgvt2EBjUj-45" value="下游连接" style="edgeLabel;html=1;align=center;verticalAlign=middle;resizable=0;points=[];" vertex="1" connectable="0" parent="dreWkVH8_gjgvt2EBjUj-44">
          <mxGeometry x="-0.25" y="-2" relative="1" as="geometry">
            <mxPoint y="-2" as="offset" />
          </mxGeometry>
        </mxCell>
        <mxCell id="dreWkVH8_gjgvt2EBjUj-46" value="codec" style="rounded=0;whiteSpace=wrap;html=1;fillColor=#ffe6cc;strokeColor=#d79b00;" vertex="1" parent="1">
          <mxGeometry x="235" y="150" width="50" height="40" as="geometry" />
        </mxCell>
        <mxCell id="dreWkVH8_gjgvt2EBjUj-47" value="router" style="rounded=0;whiteSpace=wrap;html=1;fillColor=#dae8fc;strokeColor=#6c8ebf;" vertex="1" parent="1">
          <mxGeometry x="430" y="150" width="50" height="40" as="geometry" />
        </mxCell>
        <mxCell id="dreWkVH8_gjgvt2EBjUj-48" value="cluster" style="rounded=0;whiteSpace=wrap;html=1;fillColor=#dae8fc;strokeColor=#6c8ebf;" vertex="1" parent="1">
          <mxGeometry x="480" y="150" width="50" height="40" as="geometry" />
        </mxCell>
      </root>
    </mxGraphModel>
  </diagram>
</mxfile>
